<?xml version="1.0" standalone="no"?>
<!DOCTYPE svg PUBLIC "-//W3C//DTD SVG 20010904//EN"
 "http://www.w3.org/TR/2001/REC-SVG-20010904/DTD/svg10.dtd">
<svg version="1.0" xmlns="http://www.w3.org/2000/svg"
 width="860.000000pt" height="1061.000000pt" viewBox="0 0 860.000000 1061.000000"
 preserveAspectRatio="xMidYMid meet">
<metadata>
Created by potrace 1.16, written by Peter Selinger 2001-2019
</metadata>
<g transform="translate(0.000000,1061.000000) scale(0.100000,-0.100000)"
fill="#000000" stroke="none">
<path d="M7468 10190 c-14 -4 -257 -225 -540 -491 -282 -266 -751 -707 -1041
-979 l-527 -494 85 -86 85 -85 -79 -79 c-77 -76 -79 -78 -102 -62 -37 23 -105
45 -179 57 -52 8 -82 7 -137 -5 -100 -21 -154 -51 -273 -156 -335 -294 -730
-539 -1083 -671 l-89 -33 -43 49 -43 50 37 21 c20 11 101 56 181 99 176 95
546 306 873 497 133 78 261 152 284 166 24 13 45 27 48 32 2 4 -21 15 -51 25
-43 14 -77 16 -148 13 -88 -5 -104 -10 -521 -168 -436 -164 -718 -262 -924
-320 l-113 -32 -57 26 c-76 34 -132 45 -221 46 -177 0 -344 -76 -487 -222 -81
-82 -117 -133 -164 -232 -125 -260 -103 -543 58 -770 19 -27 108 -134 197
-239 567 -666 665 -786 843 -1022 180 -240 409 -594 400 -618 -12 -31 -103
-141 -172 -206 -104 -99 -229 -189 -472 -342 -115 -72 -244 -156 -288 -187
-219 -151 -381 -322 -518 -548 -155 -254 -244 -484 -422 -1089 -52 -176 -115
-383 -142 -460 -45 -132 -47 -146 -48 -245 0 -99 2 -109 32 -171 102 -206 379
-308 621 -228 138 46 239 144 300 291 17 40 83 243 147 451 152 498 228 690
347 885 92 151 218 294 357 407 70 56 352 247 358 241 2 -1 -13 -70 -32 -152
-67 -275 -87 -418 -92 -646 -6 -222 1 -306 43 -538 57 -311 144 -642 270
-1019 90 -271 112 -317 188 -398 149 -160 393 -197 611 -93 160 76 260 246
241 409 -4 30 -40 156 -82 280 -121 364 -207 677 -276 1002 -31 147 -32 164
-32 369 0 180 4 236 23 344 28 161 80 373 165 671 76 272 117 433 145 570 17
89 26 109 74 182 120 179 155 379 101 588 -32 125 -223 472 -428 775 -98 146
-305 425 -434 585 l-80 99 181 91 c356 178 647 371 933 618 139 120 186 173
226 255 27 54 33 79 36 152 3 59 0 104 -10 138 l-15 50 83 83 84 84 88 -87 87
-86 735 690 c404 380 876 823 1049 986 l314 295 -6 116 c-7 140 -31 224 -88
310 -52 78 -133 134 -228 155 -73 17 -197 20 -243 6z"/>
<path d="M2263 9023 c-65 -75 -120 -140 -123 -144 -3 -4 -41 1 -85 12 -98 23
-231 25 -328 3 -40 -9 -114 -36 -166 -61 -80 -38 -108 -58 -186 -137 -150
-150 -215 -305 -215 -514 0 -127 18 -208 70 -317 113 -235 344 -391 610 -412
134 -10 299 29 418 99 81 47 220 189 260 265 29 56 37 63 70 68 56 10 99 35
149 88 57 62 90 134 103 231 19 131 -13 316 -85 501 -26 68 -34 80 -56 83 -14
2 -76 -21 -147 -53 l-122 -57 -53 44 c-28 25 -67 55 -85 67 l-32 23 97 111
c53 62 106 122 116 134 l20 23 -44 39 c-24 22 -49 40 -56 41 -6 0 -64 -62
-130 -137z m443 -439 c18 -55 36 -123 40 -151 l6 -52 -58 -16 c-33 -9 -66 -19
-75 -21 -13 -3 -22 12 -39 65 -12 39 -40 100 -61 136 l-38 66 82 39 c45 21 89
38 97 37 9 -1 26 -40 46 -103z m34 -436 c-18 -59 -31 -80 -75 -124 -72 -73
-87 -71 -65 6 6 19 12 78 14 130 l4 95 69 21 68 20 3 -39 c2 -22 -6 -71 -18
-109z"/>
<path d="M7513 7338 c-61 -280 -182 -540 -366 -783 -181 -238 -481 -493 -801
-680 -181 -106 -484 -241 -662 -295 l-72 -21 11 -40 c5 -23 15 -43 22 -45 29
-12 366 131 560 237 629 343 1068 818 1248 1351 39 115 90 330 85 360 -2 11
-13 -27 -25 -84z"/>
<path d="M765 4855 c-33 -32 -33 -84 -1 -122 l24 -28 238 -3 c167 -2 246 0
266 9 61 25 73 108 21 149 -24 19 -40 20 -275 20 l-249 0 -24 -25z"/>
<path d="M1499 4867 c-44 -34 -50 -93 -15 -134 l24 -28 257 0 257 0 24 28 c33
39 31 81 -5 118 l-29 29 -249 0 c-179 -1 -252 -4 -264 -13z"/>
<path d="M664 4686 c-17 -8 -44 -31 -60 -52 l-29 -37 -3 -1715 -2 -1715 21
-43 c65 -136 268 -114 309 34 14 53 14 3362 -1 3417 -12 44 -49 89 -91 111
-34 18 -103 17 -144 0z"/>
<path d="M1319 4677 c-18 -12 -44 -38 -56 -56 l-23 -34 2 -1726 3 -1726 24
-34 c26 -37 90 -70 134 -71 15 0 43 6 61 14 l33 14 -25 73 c-23 65 -26 90 -26
204 l0 130 62 186 62 185 0 1376 0 1375 -23 34 c-36 53 -82 79 -142 79 -38 0
-61 -6 -86 -23z"/>
<path d="M1986 4677 c-25 -14 -48 -39 -63 -66 l-23 -44 0 -841 1 -841 77 155
c74 148 155 283 228 379 l34 44 0 551 0 552 -22 44 c-43 84 -149 115 -232 67z"/>
</g>
</svg>
